# xmcd
#
# Track frame offsets: 
#        150
#        19071
#        37378
#        57205
#        76426
#        100713
#        115628
#        135712
#        154293
#        174094
#        189428
#        218268
#        242526
#
# Disc length: 3557 seconds
#
# Revision: 0
# Processed by: cddbd v1.5.2PL0 Copyright (c) Steve Scherf et al.
# Submitted via: ExactAudioCopyFreeDBPlugin 1.0
#
DISCID=9e0de30d
DTITLE=Diamond Head - Diamond Head
DYEAR=2016
DGENRE=Heavy Metal
TTITLE0=Bones
TTITLE1=Shout At The Devil
TTITLE2=Set My Soul On Fire
TTITLE3=See You Rise
TTITLE4=All The Reasons You Live
TTITLE5=Wizard Sleeve
TTITLE6=Our Time Is Now
TTITLE7=Speed
TTITLE8=Blood On My Hands
TTITLE9=Diamonds
TTITLE10=Silence
TTITLE11=Kings and Queens
TTITLE12=All The Reasons You Live (Orchestral Mix)
EXTD=
EXTT0=
EXTT1=
EXTT2=
EXTT3=
EXTT4=
EXTT5=
EXTT6=
EXTT7=
EXTT8=
EXTT9=
EXTT10=
EXTT11=
EXTT12=
PLAYORDER=
